<?xml version="1.0" standalone="no"?>
<!DOCTYPE svg PUBLIC "-//W3C//DTD SVG 20010904//EN"
 "http://www.w3.org/TR/2001/REC-SVG-20010904/DTD/svg10.dtd">
<svg version="1.0" xmlns="http://www.w3.org/2000/svg"
 width="700.000000pt" height="700.000000pt" viewBox="0 0 700.000000 700.000000"
 preserveAspectRatio="xMidYMid meet">
<metadata>
Created by potrace 1.14, written by Peter Selinger 2001-2017
</metadata>
<g transform="translate(0.000000,700.000000) scale(0.100000,-0.100000)"
fill="#000000" stroke="none">
<path d="M1655 6637 c-104 -34 -179 -100 -224 -197 -21 -46 -26 -69 -25 -140
0 -91 19 -150 69 -216 13 -17 167 -145 342 -285 175 -139 320 -256 323 -259 3
-3 103 -83 223 -179 119 -95 217 -177 217 -181 0 -4 -19 -39 -42 -76 -167
-275 -327 -698 -383 -1009 -39 -220 -48 -321 -49 -555 -1 -313 8 -416 59 -680
59 -304 215 -705 373 -963 23 -37 42 -71 42 -76 0 -10 45 27 -560 -456 -267
-213 -500 -402 -518 -419 -18 -17 -48 -60 -65 -96 -29 -57 -32 -74 -32 -150 0
-71 5 -95 27 -142 36 -78 89 -133 167 -171 59 -29 75 -32 151 -32 102 1 159
24 260 104 36 29 80 64 99 79 18 15 38 32 45 37 6 6 40 33 76 60 36 28 72 57
81 65 9 8 135 109 280 225 145 115 271 215 279 222 8 7 46 37 83 67 l69 56 97
-88 c53 -48 110 -98 127 -112 89 -76 291 -218 399 -280 33 -19 69 -40 80 -47
63 -36 262 -130 349 -164 217 -87 356 -127 636 -184 8 -1 58 -8 110 -15 52 -6
121 -15 153 -19 31 -4 128 -7 215 -7 l157 1 63 34 c75 41 125 94 161 170 37
79 37 200 -1 282 -46 100 -130 171 -233 197 -22 6 -105 13 -185 16 -80 3 -156
8 -170 10 -14 3 -47 7 -75 11 -150 19 -345 69 -515 131 -245 90 -564 279 -736
437 -23 21 -50 44 -60 51 -22 17 -28 11 141 145 72 57 146 116 165 132 19 16
177 143 351 282 401 320 411 327 503 402 34 28 79 64 100 80 37 29 305 243
336 268 22 18 511 409 534 427 10 8 34 28 52 43 l33 28 -358 287 c-198 158
-376 301 -397 317 -21 17 -67 54 -103 83 -37 29 -79 63 -95 75 -15 12 -33 27
-40 32 -6 6 -67 55 -136 110 -69 55 -132 105 -140 112 -8 7 -89 71 -180 144
-91 72 -176 141 -190 153 -14 11 -43 34 -65 50 -22 17 -42 33 -45 36 -3 3
-106 86 -230 184 -124 99 -231 185 -239 192 -11 10 -6 19 30 54 112 105 363
276 524 357 231 117 540 213 760 238 33 4 69 9 80 11 11 3 81 7 155 10 208 8
262 23 342 94 30 26 59 66 80 108 30 59 33 76 33 152 0 76 -4 93 -33 152 -38
77 -92 130 -171 167 -53 25 -64 26 -206 26 -134 -1 -321 -12 -335 -20 -3 -1
-32 -6 -65 -10 -32 -3 -62 -8 -65 -10 -3 -1 -26 -6 -52 -9 -26 -4 -53 -9 -60
-11 -7 -2 -24 -6 -38 -9 -14 -2 -46 -9 -70 -16 -25 -6 -70 -18 -100 -27 -350
-93 -732 -283 -1040 -515 -71 -54 -138 -105 -148 -115 -78 -75 -187 -168 -194
-165 -5 1 -34 23 -66 48 -31 26 -75 61 -96 78 -22 17 -69 55 -105 84 -36 29
-73 59 -81 65 -138 108 -206 163 -210 167 -3 3 -52 43 -110 89 -58 45 -114 90
-125 99 -11 9 -52 42 -90 72 -89 70 -100 79 -138 113 -18 15 -60 41 -95 59
-73 36 -179 47 -247 25z m2261 -2518 l775 -620 -28 -22 c-15 -12 -365 -291
-777 -620 -560 -448 -751 -595 -758 -585 -32 49 -128 253 -165 353 -77 204
-104 309 -140 540 -18 121 -24 477 -10 600 36 304 129 607 265 867 31 60 57
108 59 108 2 0 352 -279 779 -621z"/>
</g>
</svg>
